<svg width="28" height="29" viewBox="0 0 28 29" fill="none" xmlns="http://www.w3.org/2000/svg">
<path d="M14.0001 7.78005C13.853 7.78001 13.7073 7.80895 13.5714 7.86522C13.4355 7.9215 13.312 8.00399 13.208 8.108C13.104 8.21201 13.0215 8.33549 12.9652 8.4714C12.909 8.6073 12.88 8.75296 12.8801 8.90005V13.8099L10.1577 15.1798C10.0264 15.2459 9.90931 15.3372 9.81324 15.4485C9.71716 15.5598 9.64396 15.6889 9.5978 15.8285C9.55164 15.9681 9.53342 16.1155 9.5442 16.2621C9.55497 16.4087 9.59452 16.5518 9.66059 16.6832C9.72667 16.8145 9.81796 16.9316 9.92927 17.0276C10.0406 17.1237 10.1697 17.1969 10.3093 17.2431C10.4489 17.2892 10.5962 17.3075 10.7429 17.2967C10.8895 17.2859 11.0326 17.2464 11.164 17.1803L14.5032 15.5003C14.6887 15.4072 14.8446 15.2643 14.9535 15.0877C15.0625 14.9111 15.1201 14.7076 15.1201 14.5V8.90005C15.1201 8.75296 15.0911 8.6073 15.0349 8.4714C14.9786 8.33549 14.8961 8.21201 14.7921 8.108C14.6881 8.00399 14.5646 7.9215 14.4287 7.86522C14.2928 7.80895 14.1471 7.78001 14.0001 7.78005ZM14.0001 3.30005C11.7849 3.30005 9.6195 3.95692 7.77767 5.18759C5.93584 6.41826 4.5003 8.16746 3.6526 10.214C2.8049 12.2605 2.5831 14.5125 3.01526 16.6851C3.44741 18.8576 4.51411 20.8533 6.08046 22.4196C7.6468 23.986 9.64245 25.0527 11.815 25.4848C13.9876 25.917 16.2396 25.6952 18.2861 24.8475C20.3326 23.9998 22.0818 22.5643 23.3125 20.7224C24.5432 18.8806 25.2 16.7152 25.2 14.5C25.1966 11.5307 24.0156 8.68388 21.9159 6.5842C19.8162 4.48453 16.9694 3.30345 14.0001 3.30005ZM14.0001 23.46C12.2279 23.46 10.4956 22.9345 9.02214 21.95C7.54868 20.9655 6.40025 19.5661 5.72209 17.9289C5.04393 16.2917 4.86649 14.4901 5.21222 12.752C5.55794 11.014 6.4113 9.41745 7.66438 8.16437C8.91745 6.91129 10.514 6.05794 12.252 5.71221C13.9901 5.36649 15.7917 5.54393 17.4289 6.22209C19.0661 6.90025 20.4655 8.04867 21.45 9.52214C22.4346 10.9956 22.96 12.7279 22.96 14.5C22.9573 16.8756 22.0125 19.153 20.3327 20.8327C18.653 22.5125 16.3756 23.4573 14.0001 23.46Z" />
</svg>
