<svg width="28" height="29" viewBox="0 0 28 29" xmlns="http://www.w3.org/2000/svg">
<path d="M24.7334 17.2365V17.1805C24.7198 16.9642 24.6823 16.7501 24.6214 16.5421L22.7846 5.64451C22.6534 4.8515 22.2422 4.1318 21.6257 3.61601C21.0093 3.10023 20.2283 2.82253 19.4246 2.83331H7.58617C6.79206 2.83588 6.02452 3.11964 5.4197 3.63425C4.81488 4.14886 4.41188 4.86105 4.28217 5.64451L2.46777 16.5197C2.40689 16.7277 2.36933 16.9418 2.35577 17.1581V17.2141C2.33337 17.2925 2.33337 17.3933 2.33337 17.3933V21.8733C2.33337 22.7644 2.68737 23.6191 3.3175 24.2492C3.94762 24.8793 4.80225 25.2333 5.69337 25.2333H21.3734C22.2645 25.2333 23.1191 24.8793 23.7493 24.2492C24.3794 23.6191 24.7334 22.7644 24.7334 21.8733V17.3933C24.7334 17.3933 24.7334 17.2925 24.7334 17.2365ZM6.48857 6.00291C6.53391 5.73994 6.67165 5.5018 6.87698 5.33137C7.08232 5.16094 7.34175 5.06943 7.60857 5.07331H19.4806C19.7474 5.06943 20.0068 5.16094 20.2122 5.33137C20.4175 5.5018 20.5552 5.73994 20.6006 6.00291L21.9446 14.0893C21.7565 14.0521 21.5651 14.0333 21.3734 14.0333H5.69337C5.50909 14.0348 5.32535 14.0535 5.14457 14.0893L6.48857 6.00291ZM22.4934 21.8733C22.4934 22.1704 22.3754 22.4552 22.1653 22.6653C21.9553 22.8753 21.6704 22.9933 21.3734 22.9933H5.69337C5.39633 22.9933 5.11146 22.8753 4.90141 22.6653C4.69137 22.4552 4.57337 22.1704 4.57337 21.8733V17.4829L4.66297 16.9677C4.747 16.7632 4.88968 16.5881 5.07305 16.4645C5.25642 16.3409 5.47226 16.2744 5.69337 16.2733H21.3734C21.5945 16.2744 21.8103 16.3409 21.9937 16.4645C22.1771 16.5881 22.3198 16.7632 22.4038 16.9677L22.4934 17.4829V21.8733ZM19.1334 18.5133C18.9119 18.5133 18.6953 18.579 18.5111 18.7021C18.327 18.8251 18.1834 19 18.0986 19.2047C18.0139 19.4094 17.9917 19.6346 18.0349 19.8518C18.0781 20.0691 18.1848 20.2686 18.3414 20.4253C18.4981 20.5819 18.6976 20.6886 18.9149 20.7318C19.1321 20.775 19.3573 20.7528 19.562 20.6681C19.7666 20.5833 19.9416 20.4397 20.0646 20.2555C20.1877 20.0714 20.2534 19.8548 20.2534 19.6333C20.2534 19.3363 20.1354 19.0514 19.9253 18.8413C19.7153 18.6313 19.4304 18.5133 19.1334 18.5133Z" />
</svg>
