<svg width="28" height="29" viewBox="0 0 28 29" fill="none" xmlns="http://www.w3.org/2000/svg">
<path d="M14.0513 18.2488L9.67747 22.6226C9.41878 22.8823 9.11135 23.0884 8.77281 23.229C8.43428 23.3696 8.07132 23.442 7.70474 23.442C7.33817 23.442 6.9752 23.3696 6.63667 23.229C6.29814 23.0884 5.99071 22.8823 5.73201 22.6226C5.47094 22.3647 5.26365 22.0575 5.12218 21.7188C4.98071 21.3802 4.90786 21.0169 4.90786 20.6499C4.90786 20.2829 4.98071 19.9195 5.12218 19.5809C5.26365 19.2422 5.47094 18.9351 5.73201 18.6771L10.1058 14.3033C10.3181 14.091 10.4374 13.8031 10.4374 13.5029C10.4374 13.2027 10.3181 12.9148 10.1058 12.7026C9.89357 12.4903 9.60567 12.371 9.30547 12.371C9.00528 12.371 8.71738 12.4903 8.50511 12.7026L4.13128 17.0877C3.25015 18.0467 2.77362 19.3092 2.80118 20.6113C2.82875 21.9133 3.35829 23.1545 4.27922 24.0754C5.20014 24.9963 6.44125 25.5259 7.74335 25.5534C9.04545 25.581 10.3079 25.1044 11.2669 24.2233L15.652 19.8495C15.8643 19.6372 15.9836 19.3493 15.9836 19.0491C15.9836 18.7489 15.8643 18.461 15.652 18.2488C15.4398 18.0365 15.1519 17.9172 14.8517 17.9172C14.5515 17.9172 14.2636 18.0365 14.0513 18.2488ZM10.3538 18.0008C10.4592 18.1052 10.5841 18.1879 10.7214 18.244C10.8588 18.3001 11.0058 18.3285 11.1542 18.3277C11.3026 18.3285 11.4496 18.3001 11.587 18.244C11.7243 18.1879 11.8492 18.1052 11.9546 18.0008L17.5008 12.4546C17.713 12.2423 17.8323 11.9544 17.8323 11.6542C17.8323 11.354 17.713 11.0661 17.5008 10.8538C17.2885 10.6416 17.0006 10.5223 16.7004 10.5223C16.4002 10.5223 16.1123 10.6416 15.9 10.8538L10.3538 16.4C10.2482 16.5048 10.1643 16.6295 10.1071 16.7669C10.0499 16.9042 10.0204 17.0516 10.0204 17.2004C10.0204 17.3492 10.0499 17.4966 10.1071 17.6339C10.1643 17.7713 10.2482 17.896 10.3538 18.0008ZM24.0728 21.191H22.9455V20.0637C22.9455 19.7647 22.8267 19.478 22.6153 19.2666C22.4039 19.0552 22.1172 18.9364 21.8182 18.9364C21.5193 18.9364 21.2325 19.0552 21.0211 19.2666C20.8097 19.478 20.6909 19.7647 20.6909 20.0637V21.191H19.5637C19.2647 21.191 18.978 21.3097 18.7666 21.5211C18.5552 21.7325 18.4364 22.0193 18.4364 22.3182C18.4364 22.6172 18.5552 22.9039 18.7666 23.1153C18.978 23.3267 19.2647 23.4455 19.5637 23.4455H20.6909V24.5728C20.6909 24.8717 20.8097 25.1585 21.0211 25.3699C21.2325 25.5813 21.5193 25.7 21.8182 25.7C22.1172 25.7 22.4039 25.5813 22.6153 25.3699C22.8267 25.1585 22.9455 24.8717 22.9455 24.5728V23.4455H24.0728C24.3717 23.4455 24.6585 23.3267 24.8699 23.1153C25.0813 22.9039 25.2 22.6172 25.2 22.3182C25.2 22.0193 25.0813 21.7325 24.8699 21.5211C24.6585 21.3097 24.3717 21.191 24.0728 21.191ZM19.3495 16.152L23.7233 11.7669C24.6044 10.8079 25.081 9.54545 25.0534 8.24335C25.0258 6.94125 24.4963 5.70015 23.5754 4.77922C22.6545 3.85829 21.4133 3.32875 20.1112 3.30118C18.8092 3.27362 17.5467 3.75015 16.5877 4.63128L12.2026 9.00511C12.0975 9.11021 12.0141 9.23499 11.9572 9.37232C11.9003 9.50965 11.871 9.65683 11.871 9.80547C11.871 9.95411 11.9003 10.1013 11.9572 10.2386C12.0141 10.376 12.0975 10.5007 12.2026 10.6058C12.3077 10.7109 12.4325 10.7943 12.5698 10.8512C12.7071 10.9081 12.8543 10.9374 13.0029 10.9374C13.1516 10.9374 13.2988 10.9081 13.4361 10.8512C13.5734 10.7943 13.6982 10.7109 13.8033 10.6058L18.1771 6.23201C18.4358 5.97229 18.7433 5.76621 19.0818 5.6256C19.4203 5.48498 19.7833 5.4126 20.1499 5.4126C20.5164 5.4126 20.8794 5.48498 21.2179 5.6256C21.5565 5.76621 21.8639 5.97229 22.1226 6.23201C22.3837 6.48994 22.5909 6.79713 22.7324 7.13576C22.8739 7.4744 22.9467 7.83774 22.9467 8.20474C22.9467 8.57174 22.8739 8.93509 22.7324 9.27373C22.5909 9.61236 22.3837 9.91955 22.1226 10.1775L17.7488 14.5513C17.6431 14.6561 17.5592 14.7808 17.502 14.9181C17.4448 15.0555 17.4153 15.2029 17.4153 15.3517C17.4153 15.5005 17.4448 15.6478 17.502 15.7852C17.5592 15.9226 17.6431 16.0472 17.7488 16.152C17.8536 16.2577 17.9782 16.3416 18.1156 16.3988C18.253 16.456 18.4003 16.4855 18.5491 16.4855C18.6979 16.4855 18.8453 16.456 18.9827 16.3988C19.12 16.3416 19.2447 16.2577 19.3495 16.152Z" />
</svg>
