<svg width="28" height="29" viewBox="0 0 28 29" fill="none" xmlns="http://www.w3.org/2000/svg">
<path d="M22.3719 14.7709C22.1924 14.5665 22.0934 14.3038 22.0934 14.0318C22.0934 13.7598 22.1924 13.497 22.3719 13.2927L23.8053 11.6801C23.9633 11.5039 24.0614 11.2822 24.0855 11.0468C24.1097 10.8115 24.0586 10.5745 23.9397 10.3699L21.7 6.49521C21.5823 6.29086 21.4031 6.12888 21.188 6.03236C20.9728 5.93584 20.7327 5.90971 20.5018 5.95768L18.3965 6.38323C18.1286 6.43858 17.8497 6.39396 17.6125 6.2578C17.3752 6.12164 17.196 5.90335 17.1086 5.64413L16.4255 3.59481C16.3504 3.37238 16.2073 3.17919 16.0164 3.04254C15.8255 2.9059 15.5965 2.8327 15.3617 2.83331H10.8823C10.6381 2.82056 10.3964 2.8881 10.1942 3.0256C9.99201 3.16311 9.84037 3.36302 9.76245 3.59481L9.13533 5.64413C9.04799 5.90335 8.86878 6.12164 8.63153 6.2578C8.39428 6.39396 8.11539 6.43858 7.84751 6.38323L5.6862 5.95768C5.46733 5.92676 5.2442 5.96129 5.04492 6.05695C4.84564 6.1526 4.67912 6.30509 4.56635 6.49521L2.32666 10.3699C2.20477 10.5722 2.14997 10.8078 2.17008 11.0432C2.1902 11.2785 2.2842 11.5014 2.43864 11.6801L3.86085 13.2927C4.04038 13.497 4.13939 13.7598 4.13939 14.0318C4.13939 14.3038 4.04038 14.5665 3.86085 14.7709L2.43864 16.3835C2.2842 16.5621 2.1902 16.7851 2.17008 17.0204C2.14997 17.2557 2.20477 17.4914 2.32666 17.6937L4.56635 21.5684C4.68405 21.7727 4.86325 21.9347 5.07841 22.0312C5.29357 22.1277 5.53371 22.1539 5.76459 22.1059L7.8699 21.6803C8.13779 21.625 8.41667 21.6696 8.65392 21.8058C8.89117 21.9419 9.07038 22.1602 9.15773 22.4194L9.84084 24.4688C9.91875 24.7006 10.0704 24.9005 10.2726 25.038C10.4748 25.1755 10.7165 25.243 10.9607 25.2303H15.4401C15.6748 25.2309 15.9039 25.1577 16.0948 25.021C16.2857 24.8844 16.4288 24.6912 16.5039 24.4688L17.187 22.4194C17.2744 22.1602 17.4536 21.9419 17.6908 21.8058C17.9281 21.6696 18.207 21.625 18.4749 21.6803L20.5802 22.1059C20.8111 22.1539 21.0512 22.1277 21.2664 22.0312C21.4815 21.9347 21.6607 21.7727 21.7784 21.5684L24.0181 17.6937C24.137 17.4891 24.188 17.2521 24.1639 17.0167C24.1398 16.7813 24.0417 16.5597 23.8837 16.3835L22.3719 14.7709ZM20.7034 16.2715L21.5992 17.2793L20.1658 19.7654L18.8444 19.4966C18.0379 19.3318 17.1989 19.4688 16.4867 19.8816C15.7745 20.2945 15.2387 20.9545 14.9809 21.7363L14.5554 22.9906H11.6886L11.2854 21.7139C11.0277 20.9321 10.4919 20.2721 9.7797 19.8593C9.0675 19.4464 8.2285 19.3094 7.42197 19.4742L6.10055 19.743L4.64474 17.2681L5.54062 16.2603C6.09154 15.6443 6.39611 14.847 6.39611 14.0206C6.39611 13.1942 6.09154 12.3968 5.54062 11.7809L4.64474 10.773L6.07815 8.30936L7.39957 8.57813C8.20611 8.74299 9.0451 8.60599 9.7573 8.19312C10.4695 7.78026 11.0053 7.12026 11.263 6.33843L11.6886 5.07301H14.5554L14.9809 6.34963C15.2387 7.13146 15.7745 7.79145 16.4867 8.20432C17.1989 8.61719 18.0379 8.75419 18.8444 8.58933L20.1658 8.32056L21.5992 10.8066L20.7034 11.8145C20.1586 12.429 19.8578 13.2218 19.8578 14.043C19.8578 14.8642 20.1586 15.657 20.7034 16.2715ZM13.122 9.5524C12.2361 9.5524 11.37 9.81511 10.6334 10.3073C9.89674 10.7995 9.32261 11.4991 8.98357 12.3176C8.64454 13.1361 8.55583 14.0368 8.72867 14.9057C8.90151 15.7746 9.32813 16.5727 9.95458 17.1992C10.581 17.8256 11.3792 18.2523 12.2481 18.4251C13.117 18.5979 14.0177 18.5092 14.8362 18.1702C15.6547 17.8312 16.3543 17.257 16.8465 16.5204C17.3387 15.7838 17.6014 14.9177 17.6014 14.0318C17.6014 12.8438 17.1294 11.7044 16.2894 10.8644C15.4493 10.0243 14.31 9.5524 13.122 9.5524ZM13.122 16.2715C12.679 16.2715 12.246 16.1401 11.8777 15.894C11.5094 15.6479 11.2223 15.2981 11.0528 14.8889C10.8833 14.4796 10.8389 14.0293 10.9253 13.5948C11.0117 13.1604 11.2251 12.7613 11.5383 12.4481C11.8515 12.1349 12.2506 11.9215 12.685 11.8351C13.1195 11.7487 13.5698 11.7931 13.9791 11.9626C14.3883 12.1321 14.7381 12.4192 14.9842 12.7875C15.2303 13.1558 15.3617 13.5888 15.3617 14.0318C15.3617 14.6258 15.1257 15.1955 14.7057 15.6155C14.2857 16.0355 13.716 16.2715 13.122 16.2715Z" fill="#C1C7D0"/>
</svg>
