<svg width="24" height="24" viewBox="0 0 24 24" fill="none" xmlns="http://www.w3.org/2000/svg">
<path d="M14.9105 12.5675C15.6944 11.9507 16.2665 11.105 16.5474 10.148C16.8282 9.19097 16.8038 8.1702 16.4775 7.22771C16.1511 6.28521 15.5392 5.46786 14.7267 4.88937C13.9142 4.31087 12.9416 4 11.9442 4C10.9469 4 9.97427 4.31087 9.16179 4.88937C8.34931 5.46786 7.73735 6.28521 7.41103 7.22771C7.08471 8.1702 7.06027 9.19097 7.34111 10.148C7.62195 11.105 8.19409 11.9507 8.97796 12.5675C7.63479 13.1056 6.46284 13.9981 5.58702 15.1499C4.71121 16.3017 4.16438 17.6696 4.00482 19.1077C3.99327 19.2127 4.00252 19.3189 4.03203 19.4204C4.06154 19.5218 4.11074 19.6164 4.17681 19.6988C4.31026 19.8652 4.50436 19.9718 4.71641 19.9952C4.92846 20.0185 5.1411 19.9566 5.30753 19.8232C5.47397 19.6897 5.58058 19.4956 5.6039 19.2836C5.77947 17.7206 6.52472 16.2772 7.69727 15.229C8.86982 14.1807 10.3875 13.6013 11.9602 13.6013C13.533 13.6013 15.0507 14.1807 16.2232 15.229C17.3958 16.2772 18.141 17.7206 18.3166 19.2836C18.3383 19.48 18.4321 19.6615 18.5797 19.7929C18.7274 19.9243 18.9185 19.9964 19.1161 19.9952H19.2041C19.4136 19.9711 19.6052 19.8651 19.737 19.7003C19.8688 19.5356 19.9301 19.3254 19.9077 19.1157C19.7473 17.6735 19.1976 16.3021 18.3173 15.1485C17.4369 13.995 16.2593 13.1027 14.9105 12.5675ZM11.9442 11.9998C11.3117 11.9998 10.6934 11.8122 10.1674 11.4608C9.64151 11.1094 9.23159 10.6099 8.98953 10.0255C8.74747 9.44112 8.68414 8.79808 8.80754 8.1777C8.93094 7.55732 9.23554 6.98746 9.68281 6.54019C10.1301 6.09292 10.6999 5.78833 11.3203 5.66492C11.9407 5.54152 12.5837 5.60486 13.1681 5.84692C13.7525 6.08898 14.252 6.49889 14.6034 7.02483C14.9548 7.55076 15.1424 8.16909 15.1424 8.80163C15.1424 9.64983 14.8055 10.4633 14.2057 11.0631C13.6059 11.6628 12.7924 11.9998 11.9442 11.9998Z" />
</svg>
